<svg xmlns="http://www.w3.org/2000/svg" viewBox="0 0 512 512"><path d="m-.16.16 512-.38.38 512-512 .38Z"/><path fill="#fff" d="m200.97 365.02 61.72-.05c20.06-.01 35.55-5.2 46.47-15.56 10.93-10.36 16.39-24.8 16.37-43.3-.01-18.62-5.49-33.14-16.43-43.55-10.94-10.41-26.44-15.6-46.5-15.6l-61.71.05.08 118.01Zm-34.91 31.08-.2-280.07 34.93-.02.07 99.92 70.47-.05c26.27-.02 47.85 8.38 64.74 25.19 16.9 16.8 25.36 38.47 25.38 65 .02 26.52-8.34 48.14-25.08 64.87-16.75 16.72-38.25 25.08-64.53 25.08l-105.81.08Z"/><path fill="#fff" d="m-.03 216.08 512-.37.06 89.6-512 .37Z" opacity=".4"/></svg>